<svg xmlns="http://www.w3.org/2000/svg" width="110" height="110" viewBox="0 0 110 110"><g transform="translate(-125 -410)"><path d="M55,0A55,55,0,1,1,0,55,55,55,0,0,1,55,0Z" transform="translate(125 410)" fill="#ececec"/><g transform="translate(158.351 434.292)"><g transform="translate(0 4)"><path d="M41.418,4H.92A.92.92,0,0,0,0,4.92V57.383a.92.92,0,0,0,.92.92h40.5a.92.92,0,0,0,.92-.92V4.92A.92.92,0,0,0,41.418,4ZM40.5,56.463H1.841V5.841H40.5Z" transform="translate(0 -4)" fill="#242424"/></g><g transform="translate(15.647 13.204)"><path d="M146.124,84h-9.2a.92.92,0,1,0,0,1.841h9.2a.92.92,0,1,0,0-1.841Z" transform="translate(-136 -84)" fill="#242424"/></g><g transform="translate(7.363 24.249)"><path d="M70.443,180H64.92a.92.92,0,1,0,0,1.841h5.522a.92.92,0,1,0,0-1.841Z" transform="translate(-64 -180)" fill="#242424"/></g><g transform="translate(16.567 24.249)"><path d="M165.169,180H144.92a.92.92,0,0,0,0,1.841h20.249a.92.92,0,0,0,0-1.841Z" transform="translate(-144 -180)" fill="#242424"/></g><g transform="translate(3.682 27.93)"><path d="M66.055,212H32.92a.92.92,0,0,0,0,1.841H66.055a.92.92,0,0,0,0-1.841Z" transform="translate(-32 -212)" fill="#242424"/></g><g transform="translate(3.682 31.612)"><path d="M56.851,244H32.92a.92.92,0,1,0,0,1.841h23.93a.92.92,0,0,0,0-1.841Z" transform="translate(-32 -244)" fill="#242424"/></g><g transform="translate(31.294 31.612)"><path d="M278.443,244H272.92a.92.92,0,0,0,0,1.841h5.522a.92.92,0,0,0,0-1.841Z" transform="translate(-272 -244)" fill="#242424"/></g><g transform="translate(20.249 35.294)"><path d="M193.488,276H176.92a.92.92,0,1,0,0,1.841h16.567a.92.92,0,1,0,0-1.841Z" transform="translate(-176 -276)" fill="#242424"/></g><g transform="translate(3.682 35.294)"><path d="M45.806,276H32.92a.92.92,0,1,0,0,1.841H45.806a.92.92,0,1,0,0-1.841Z" transform="translate(-32 -276)" fill="#242424"/></g><g transform="translate(33.134 38.975)"><path d="M292.6,308H288.92a.92.92,0,0,0,0,1.841H292.6a.92.92,0,1,0,0-1.841Z" transform="translate(-288 -308)" fill="#242424"/></g><g transform="translate(3.682 38.975)"><path d="M37.522,308h-4.6a.92.92,0,0,0,0,1.841h4.6a.92.92,0,0,0,0-1.841Z" transform="translate(-32 -308)" fill="#242424"/></g><g transform="translate(11.965 38.975)"><path d="M122.408,308H104.92a.92.92,0,0,0,0,1.841h17.488a.92.92,0,0,0,0-1.841Z" transform="translate(-104 -308)" fill="#242424"/></g><g transform="translate(23.01 50.02)"><path d="M213.806,404H200.92a.92.92,0,1,0,0,1.841h12.886a.92.92,0,0,0,0-1.841Z" transform="translate(-200 -404)" fill="#242424"/></g><g transform="translate(11.965 9.522)"><g transform="translate(0 0)"><path d="M121.488,52H104.92a.92.92,0,0,0,0,1.841h16.567a.92.92,0,1,0,0-1.841Z" transform="translate(-104 -52)" fill="#242424"/></g></g><g transform="translate(25.771 18.726)"><path d="M235.965,132H224.92a.92.92,0,0,0,0,1.841h11.045a.92.92,0,0,0,0-1.841Z" transform="translate(-224 -132)" fill="#242424"/></g><g transform="translate(3.682 42.657)"><path d="M53.169,340H32.92a.92.92,0,1,0,0,1.841H53.169a.92.92,0,1,0,0-1.841Z" transform="translate(-32 -340)" fill="#242424"/></g></g></g></svg>