<svg xmlns="http://www.w3.org/2000/svg" width="110.279" height="110.28" viewBox="0 0 110.279 110.28"><g transform="translate(-310 -1153)"><ellipse cx="55.14" cy="55.14" rx="55.14" ry="55.14" transform="translate(310 1153)" fill="#ececec"/><g transform="translate(337.435 1181.511)"><g transform="translate(12.869 27.941)"><path d="M127.26,269.336a5.061,5.061,0,0,0-2.094-1.213,5.917,5.917,0,0,0-5.268,1.114.8.8,0,0,0,.92,1.3c3.135-2.217,5.2-.191,5.295-.1a.8.8,0,0,0,1.148-1.1Z" transform="translate(-119.56 -267.904)" fill="#242424"/></g><g transform="translate(10.285 35.536)"><path d="M97.023,338.81c.148,0-.034,0,0,0Z" transform="translate(-97.019 -338.808)" fill="#242424"/></g><g transform="translate(0 3.422)"><path d="M29.759,74.6A16.019,16.019,0,0,0,31.5,70.083a.807.807,0,0,0-.591-.972.8.8,0,0,0-.959.6,14.552,14.552,0,0,1-1.495,3.958c-2.585-1.54-4.694-1.346-6.542-1.356V70.331a11.332,11.332,0,0,0,5.454-6.786,3.3,3.3,0,0,0,2.909-3.293v-.946a3.309,3.309,0,0,0-2.453-3.21c-.006-4.895.014-4.72-.019-5.105q.661-.281,1.335-.585a55.342,55.342,0,0,1,1.312,16.221.8.8,0,1,0,1.585.165,57.4,57.4,0,0,0-1.467-17.319,2.455,2.455,0,0,0,.543-1.54V44.986A3.692,3.692,0,0,0,24.614,42.6a6.558,6.558,0,0,0-5.064-2.407H9.4A6.77,6.77,0,0,0,2.683,47c.012,6.524-.027,6.18.035,6.537C.54,60.013-.91,69.48,2.974,75.116A10.02,10.02,0,0,0,0,82.248v3.965a1.742,1.742,0,0,0,1.728,1.751H31.587a1.741,1.741,0,0,0,1.727-1.751V82.248A10,10,0,0,0,29.759,74.6ZM25.765,63.316A9.687,9.687,0,0,1,19.828,69.5a9.549,9.549,0,0,1-12.28-6.184c-.587-1.835-.46-2.862-.46-7.705a53.188,53.188,0,0,0,19.137-3.974C26.225,61.233,26.335,61.535,25.765,63.316ZM13,73.229V71.04a11.017,11.017,0,0,0,7.318,0v2.19l-3.28,3.329a.53.53,0,0,1-.756,0l-3.272-3.321h0Zm14.821-15.4c1.169.662.792,2.014.859,2.428a1.7,1.7,0,0,1-.95,1.529A33.965,33.965,0,0,0,27.819,57.825ZM4.277,47A5.162,5.162,0,0,1,9.4,41.81H19.55a5.009,5.009,0,0,1,4.422,2.7.793.793,0,0,0,1.462-.138,2.092,2.092,0,0,1,4.08.614v2.947a.811.811,0,0,1-.463.737c-9.063,4.2-17.683,5.644-24.024,5.268a.81.81,0,0,1-.75-.812C4.277,52.233,4.277,47.786,4.277,47ZM5.5,57.825a33.924,33.924,0,0,0,.09,3.958,1.7,1.7,0,0,1-.949-1.529C4.711,59.8,4.323,58.491,5.5,57.825ZM1.728,86.348a.135.135,0,0,1-.135-.135V82.248a8.334,8.334,0,0,1,4.883-7.61.814.814,0,0,0,.406-1.067.793.793,0,0,0-1.051-.412,9.718,9.718,0,0,0-1.617.922C.915,69.146,2.149,60.95,3.863,55.22a3.006,3.006,0,0,0,1.632.362V56.1a3.311,3.311,0,0,0-2.452,3.21v.946a3.3,3.3,0,0,0,2.907,3.292A11.338,11.338,0,0,0,11.4,70.331v1.981c-2.125.009-.1-.014-2.219.02a.808.808,0,0,0,.1,1.613c2.088-.032.064-.01,2.152-.017L15.152,77.7a2.107,2.107,0,0,0,3.011,0l3.719-3.773c.987.005,1.755-.015,2.229.023a8.292,8.292,0,0,1,7.61,8.3v3.965C31.721,86.48,33.434,86.284,1.728,86.348Z" transform="translate(0 -40.193)" fill="#242424"/></g><g transform="translate(9.687 19.306)"><g transform="translate(0 0)"><ellipse cx="1.384" cy="1.384" rx="1.384" ry="1.384" fill="#242424"/></g></g><g transform="translate(21.756 19.306)"><g transform="translate(0 0)"><ellipse cx="1.384" cy="1.384" rx="1.384" ry="1.384" fill="#242424"/></g></g><g transform="translate(14.408 18.955)"><g transform="translate(0 0)"><path d="M137.685,190.762H136.2a.6.6,0,0,1-.6-.6v-5.39a.8.8,0,0,0-1.594,0v5.39a2.191,2.191,0,0,0,2.189,2.189h1.488a.8.8,0,0,0,0-1.593Z" transform="translate(-134.008 -183.98)" fill="#242424"/></g></g><g transform="translate(15.947 43.065)"><ellipse cx="0.923" cy="0.923" rx="0.923" ry="0.923" fill="#242424"/></g><g transform="translate(15.947 46.443)"><ellipse cx="0.923" cy="0.923" rx="0.923" ry="0.923" fill="#242424"/></g><g transform="translate(35.181 0)"><path d="M340.869,7.914H329.054a3.89,3.89,0,0,0-3.886,3.886V31.131a3.89,3.89,0,0,0,3.886,3.886h.133v2.56a2,2,0,0,0,2.023,2.011,1.975,1.975,0,0,0,1.822-1.2l1.473-3.319c.008-.019.017-.037.026-.055h6.338a3.855,3.855,0,0,0,2.778-1.174.8.8,0,1,0-1.14-1.113,2.274,2.274,0,0,1-1.638.694h-6.756a.8.8,0,0,0-.6.274,2.9,2.9,0,0,0-.464.729l-1.473,3.32a.378.378,0,0,1-.365.249.413.413,0,0,1-.43-.417V34.22a.8.8,0,0,0-.8-.8h-.929a2.3,2.3,0,0,1-2.293-2.293V11.8a2.3,2.3,0,0,1,2.293-2.293h11.815a2.3,2.3,0,0,1,2.293,2.293V30.332a.8.8,0,0,0,1.594,0V11.8A3.89,3.89,0,0,0,340.869,7.914Z" transform="translate(-325.168 -7.914)" fill="#242424"/></g><g transform="translate(38.621 3.421)"><path d="M369.18,40.19H358.416a.8.8,0,1,0,0,1.593H369.18a.8.8,0,1,0,0-1.593Z" transform="translate(-357.619 -40.19)" fill="#242424"/></g><g transform="translate(38.621 6.303)"><path d="M369.18,67.369H358.416a.8.8,0,0,0,0,1.594H369.18a.8.8,0,1,0,0-1.594Z" transform="translate(-357.619 -67.369)" fill="#242424"/></g><g transform="translate(47.862 9.308)"><path d="M447.117,94.549h-1.523a.8.8,0,1,0,0,1.593h1.523a.8.8,0,0,0,0-1.593Z" transform="translate(-444.798 -94.549)" fill="#242424"/></g><g transform="translate(38.488 9.308)"><path d="M364.471,94.549h-6.055a.8.8,0,1,0,0,1.593h6.055a.8.8,0,1,0,0-1.593Z" transform="translate(-357.619 -94.549)" fill="#242424"/></g><g transform="translate(38.621 12.228)"><path d="M369.18,121.728H358.416a.8.8,0,0,0,0,1.594H369.18a.8.8,0,1,0,0-1.594Z" transform="translate(-357.619 -121.728)" fill="#242424"/></g><g transform="translate(38.621 15.148)"><path d="M369.18,148.907H358.416a.8.8,0,1,0,0,1.594H369.18a.8.8,0,1,0,0-1.594Z" transform="translate(-357.619 -148.907)" fill="#242424"/></g><g transform="translate(38.621 18.068)"><path d="M369.18,176.086H358.416a.8.8,0,1,0,0,1.593H369.18a.8.8,0,1,0,0-1.593Z" transform="translate(-357.619 -176.086)" fill="#242424"/></g><g transform="translate(45.632 20.988)"><path d="M428.305,203.265h-3.753a.8.8,0,0,0,0,1.594h3.753a.8.8,0,0,0,0-1.594Z" transform="translate(-423.755 -203.265)" fill="#242424"/></g><g transform="translate(38.461 20.988)"><path d="M362.239,203.265h-3.824a.8.8,0,0,0,0,1.594h3.824a.8.8,0,0,0,0-1.594Z" transform="translate(-357.618 -203.265)" fill="#242424"/></g><g transform="translate(33.814 32.845)"><path d="M323.656,311.269a10.233,10.233,0,0,0-6.266,1.825c-3.429-1.3-3.392-1.385-3.815-1.385a1.3,1.3,0,0,0-1.3,1.3c0,.553.206.612,1.848,3.829a10.23,10.23,0,0,0,4.318,13.668.8.8,0,1,0,.75-1.406,8.632,8.632,0,0,1-3.473-11.866.8.8,0,0,0,.012-.764l-1.526-2.9,3.012,1.168a.8.8,0,0,0,.772-.11,8.65,8.65,0,0,1,13.865,6.856v.056a8.645,8.645,0,0,1-9.91,8.472.8.8,0,1,0-.236,1.576,10.241,10.241,0,0,0,11.739-10.038v-.065A10.327,10.327,0,0,0,323.656,311.269Z" transform="translate(-312.279 -311.26)" fill="#242424"/></g><g transform="translate(43.224 47.76)"><g transform="translate(0 0)"><ellipse cx="1.047" cy="1.046" rx="1.047" ry="1.046" fill="#242424"/></g></g><g transform="translate(43.471 35.766)"><path d="M405.419,338.817a.8.8,0,0,0-.8.8v9.462a.8.8,0,0,0,1.594,0v-9.462A.8.8,0,0,0,405.419,338.817Z" transform="translate(-404.622 -338.817)" fill="#242424"/></g></g></g></svg>