<svg width="1366" height="770" viewBox="0 0 1366 770" fill="none" xmlns="http://www.w3.org/2000/svg">
<g clip-path="url(#clip0)">
<rect width="1366" height="770" fill="white"/>
<rect x="118" y="450" width="59" height="4" fill="white"/>
<rect x="118" y="450" width="59" height="4" fill="white"/>
<rect x="118" y="450" width="59" height="4" fill="white"/>
<path d="M18.42 -171.065C41.1005 -231.507 56.3963 -244.312 95.8656 -264.699C170.406 -303.2 241.756 -272.381 248.763 -211.353C253.082 -173.738 220.289 -145.646 299.892 -84.0298C365.004 -33.6311 274.753 59.2443 222.711 36.9709C173.391 15.8624 128.833 55.0301 105.717 72.8921C30.6927 134.942 -38.4766 114.082 -63.6833 95.8955C-164.538 7.78675 -80.5442 -66.8897 -26.2478 -96.3914C3.04436 -112.307 9.5988 -157.202 18.42 -171.065Z" fill="#92A0E1"/>
<path d="M1376.8 917.817C1357.19 979.325 1342.56 992.884 1304.17 1015.23C1231.67 1057.44 1158.85 1030.26 1148.78 969.66C1142.57 932.31 1173.91 902.601 1091.3 845.075C1023.73 798.021 1109.19 700.716 1162.29 720.339C1212.61 738.935 1255.14 697.572 1277.32 678.568C1349.12 612.816 1419.26 630.165 1445.35 647.058C1550.51 729.973 1470.39 808.787 1417.65 840.987C1389.2 858.359 1384.91 903.527 1376.8 917.817Z" fill="#92A0E1"/>
</g>
<defs>
<clipPath id="clip0">
<rect width="1366" height="770" fill="white"/>
</clipPath>
</defs>
</svg>
