<svg width="352" height="352" viewBox="0 0 352 352" fill="none" xmlns="http://www.w3.org/2000/svg">
<path fill-rule="evenodd" clip-rule="evenodd" d="M225.125 256.452H126.875C124.09 256.452 121.803 258.62 121.803 261.265V345.675H176H230.177V261.265C230.177 258.62 227.91 256.452 225.125 256.452Z" fill="#F9F7F8"/>
<path fill-rule="evenodd" clip-rule="evenodd" d="M71.1664 104.538H280.833C283.319 104.538 285.347 102.509 285.347 100.023V76.8322C285.347 74.3462 283.319 72.3174 280.833 72.3174H71.1664C68.6804 72.3174 66.6316 74.3462 66.6316 76.8322V100.023C66.6316 102.51 68.6804 104.538 71.1664 104.538Z" fill="#E0DFE1"/>
<path fill-rule="evenodd" clip-rule="evenodd" d="M259.036 76.8322V100.023C259.036 102.489 257.027 104.518 254.561 104.538H273.793H280.833C283.319 104.538 285.348 102.509 285.348 100.023V76.8322C285.348 74.3462 283.319 72.3174 280.833 72.3174H254.521C257.007 72.3174 259.036 74.3462 259.036 76.8322Z" fill="#D3CFD2"/>
<path fill-rule="evenodd" clip-rule="evenodd" d="M5.15625 159.81H78.2073V345.675H5.15625V159.81Z" fill="#92A0E1"/>
<path fill-rule="evenodd" clip-rule="evenodd" d="M78.2073 159.81V345.675H121.803V261.265C121.803 258.62 124.09 256.452 126.875 256.452H225.125C227.909 256.452 230.176 258.62 230.176 261.265V345.675H273.792V159.81V129.539V104.538H254.56H236.939H234.095H117.905H78.2073V129.539V159.81Z" fill="#92A0E1" fill-opacity="0.6"/>
<path fill-rule="evenodd" clip-rule="evenodd" d="M273.793 159.81H346.844V345.675H273.793V159.81Z" fill="#92A0E1"/>
<path fill-rule="evenodd" clip-rule="evenodd" d="M78.2073 129.539H9.03444C6.88669 129.539 5.15625 131.289 5.15625 133.437V159.81H78.2073V129.539Z" fill="#E0DFE1"/>
<path fill-rule="evenodd" clip-rule="evenodd" d="M273.793 129.539V159.81H346.844V133.437C346.844 131.289 345.093 129.539 342.966 129.539H273.793Z" fill="#E0DFE1"/>
<path fill-rule="evenodd" clip-rule="evenodd" d="M61.0432 159.81H78.2073V345.675H61.0432V159.81Z" fill="#7175CC" fill-opacity="0.29"/>
<path fill-rule="evenodd" clip-rule="evenodd" d="M255.356 104.538V129.539V159.81V345.675H273.793V159.81V129.539V104.538H255.356Z" fill="#AAB3E1"/>
<path fill-rule="evenodd" clip-rule="evenodd" d="M116.016 184.453C114.822 184.453 113.848 185.428 113.848 186.64V208.319C113.848 209.513 114.823 210.487 116.016 210.487H139.882C141.076 210.487 142.07 209.512 142.07 208.319V186.64C142.07 185.427 141.076 184.453 139.882 184.453H116.016Z" fill="#E0DFE1"/>
<path fill-rule="evenodd" clip-rule="evenodd" d="M161.879 186.64V208.319C161.879 209.513 162.873 210.487 164.066 210.487H187.933C189.126 210.487 190.101 209.512 190.101 208.319V186.64C190.101 185.427 189.126 184.453 187.933 184.453H164.066C162.873 184.453 161.879 185.428 161.879 186.64Z" fill="#E0DFE1"/>
<path fill-rule="evenodd" clip-rule="evenodd" d="M209.93 186.64V208.319C209.93 209.513 210.905 210.487 212.118 210.487H235.965C237.178 210.487 238.152 209.512 238.152 208.319V186.64C238.152 185.427 237.177 184.453 235.965 184.453H212.118C210.904 184.453 209.93 185.428 209.93 186.64Z" fill="#E0DFE1"/>
<path fill-rule="evenodd" clip-rule="evenodd" d="M209.93 139.384V161.063C209.93 162.256 210.905 163.25 212.118 163.25H235.965C237.178 163.25 238.152 162.256 238.152 161.063V139.384C238.152 138.19 237.177 137.196 235.965 137.196H212.118C210.904 137.196 209.93 138.191 209.93 139.384Z" fill="#E0DFE1"/>
<path fill-rule="evenodd" clip-rule="evenodd" d="M161.879 139.384V161.063C161.879 162.256 162.873 163.25 164.066 163.25H187.933C189.126 163.25 190.101 162.256 190.101 161.063V139.384C190.101 138.19 189.126 137.196 187.933 137.196H164.066C162.873 137.196 161.879 138.191 161.879 139.384Z" fill="#E0DFE1"/>
<path fill-rule="evenodd" clip-rule="evenodd" d="M116.016 137.196C114.822 137.196 113.848 138.19 113.848 139.384V161.063C113.848 162.256 114.823 163.25 116.016 163.25H139.882C141.076 163.25 142.07 162.256 142.07 161.063V139.384C142.07 138.19 141.076 137.196 139.882 137.196H116.016Z" fill="#E0DFE1"/>
<path fill-rule="evenodd" clip-rule="evenodd" d="M328.367 133.437V159.81H346.844V133.437C346.844 131.289 345.093 129.539 342.966 129.539H324.489C326.617 129.539 328.367 131.289 328.367 133.437Z" fill="#D3CFD2"/>
<path fill-rule="evenodd" clip-rule="evenodd" d="M328.367 159.81H346.844V345.675H328.367V159.81Z" fill="#7175CC" fill-opacity="0.29"/>
<path fill-rule="evenodd" clip-rule="evenodd" d="M61.0432 129.539H78.2073V159.81H61.0432V129.539Z" fill="#D3CFD2"/>
<path fill-rule="evenodd" clip-rule="evenodd" d="M117.905 104.538H234.095V9.76589C234.095 7.87664 232.544 6.32495 230.634 6.32495H121.346C119.457 6.32495 117.905 7.87664 117.905 9.76589V104.538Z" fill="#FAF5DC"/>
<path fill-rule="evenodd" clip-rule="evenodd" d="M213.948 9.76589V72.3174V104.538H234.095V72.3174V9.76589C234.095 7.87664 232.544 6.32495 230.634 6.32495H210.487C212.396 6.32495 213.948 7.87664 213.948 9.76589Z" fill="#F5EBCD"/>
<path fill-rule="evenodd" clip-rule="evenodd" d="M197.838 44.1148H187.297V33.5933C187.297 29.9936 184.354 27.0497 180.773 27.0497H171.227C167.627 27.0497 164.683 29.9936 164.683 33.5933V44.1148H154.162C150.563 44.1148 147.619 47.0587 147.619 50.6584V60.1851C147.619 63.7849 150.563 66.7287 154.162 66.7287H164.683V77.2702C164.683 80.8699 167.626 83.8138 171.227 83.8138H180.773C184.353 83.8138 187.297 80.8699 187.297 77.2702V66.7287H197.838C201.438 66.7287 204.381 63.7849 204.381 60.1851V50.6584C204.381 47.058 201.438 44.1148 197.838 44.1148Z" fill="#F37C7C"/>
<path d="M198.852 316.662C201.699 316.662 204.008 314.353 204.008 311.506V297.603C204.008 294.755 201.699 292.447 198.852 292.447C196.004 292.447 193.696 294.755 193.696 297.603V311.506C193.696 314.353 196.004 316.662 198.852 316.662Z" fill="#E0DFE1"/>
<path d="M153.128 316.741C155.975 316.741 158.284 314.432 158.284 311.585V297.702C158.284 294.854 155.975 292.546 153.128 292.546C150.28 292.546 147.971 294.854 147.971 297.702V311.585C147.971 314.432 150.28 316.741 153.128 316.741Z" fill="#E0DFE1"/>
<path d="M295.471 232.789H325.165C328.013 232.789 330.321 230.48 330.321 227.633C330.321 224.785 328.013 222.476 325.165 222.476H295.471C292.623 222.476 290.315 224.785 290.315 227.633C290.315 230.48 292.623 232.789 295.471 232.789Z" fill="#F9F7F8"/>
<path d="M295.471 266.7H325.165C328.013 266.7 330.321 264.391 330.321 261.543C330.321 258.696 328.013 256.387 325.165 256.387H295.471C292.623 256.387 290.315 258.696 290.315 261.543C290.315 264.391 292.623 266.7 295.471 266.7Z" fill="#F9F7F8"/>
<path d="M295.471 300.611H325.165C328.013 300.611 330.321 298.302 330.321 295.454C330.321 292.607 328.013 290.298 325.165 290.298H295.471C292.623 290.298 290.315 292.607 290.315 295.454C290.315 298.302 292.623 300.611 295.471 300.611Z" fill="#F9F7F8"/>
<path d="M295.471 198.877H325.165C328.013 198.877 330.321 196.569 330.321 193.721C330.321 190.873 328.013 188.565 325.165 188.565H295.471C292.623 188.565 290.315 190.873 290.315 193.721C290.315 196.569 292.623 198.877 295.471 198.877Z" fill="#F9F7F8"/>
<path d="M56.529 222.476H26.8351C23.9875 222.476 21.6789 224.785 21.6789 227.633C21.6789 230.48 23.9875 232.789 26.8351 232.789H56.529C59.3766 232.789 61.6852 230.48 61.6852 227.633C61.6852 224.785 59.3766 222.476 56.529 222.476Z" fill="#F9F7F8"/>
<path d="M56.529 256.387H26.8351C23.9875 256.387 21.6789 258.696 21.6789 261.543C21.6789 264.391 23.9875 266.7 26.8351 266.7H56.529C59.3766 266.7 61.6852 264.391 61.6852 261.543C61.6852 258.696 59.3766 256.387 56.529 256.387Z" fill="#F9F7F8"/>
<path d="M56.529 290.298H26.8351C23.9875 290.298 21.6789 292.607 21.6789 295.454C21.6789 298.302 23.9875 300.611 26.8351 300.611H56.529C59.3766 300.611 61.6852 298.302 61.6852 295.454C61.6852 292.607 59.3766 290.298 56.529 290.298Z" fill="#F9F7F8"/>
<path d="M56.529 188.565H26.8351C23.9875 188.565 21.6789 190.873 21.6789 193.721C21.6789 196.569 23.9875 198.877 26.8351 198.877H56.529C59.3766 198.877 61.6852 196.569 61.6852 193.721C61.6852 190.873 59.3766 188.565 56.529 188.565Z" fill="#F9F7F8"/>
<rect x="174" y="256" width="4" height="89" fill="#E0DFE1"/>
</svg>
