<svg width="221" height="218" viewBox="0 0 221 218" fill="none" xmlns="http://www.w3.org/2000/svg">
<rect width="221" height="218" rx="109" fill="#BEC6ED"/>
<rect x="9" y="8" width="205" height="202" rx="101" fill="#E2E2E2"/>
<path d="M84.9976 51.0785H160.053V80.5389H84.9976V51.0785Z" fill="#688D97"/>
<path d="M171.43 165.15V185.894C171.43 187.742 169.933 189.239 168.085 189.239H76.965C75.1176 189.239 73.6201 187.742 73.6201 185.894V165.15C73.6201 141.98 92.4035 123.196 115.574 123.196H129.476C152.646 123.196 171.43 141.98 171.43 165.15Z" fill="#21C1F8"/>
<path d="M154.834 160.717V189.239H149.816V160.717C149.816 159.333 150.94 158.209 152.325 158.209C153.71 158.209 154.834 159.333 154.834 160.717Z" fill="#1FAAEE"/>
<path d="M95.2351 160.717V189.239H90.2178V160.717C90.2178 159.333 91.3383 158.209 92.7263 158.209C94.1114 158.209 95.2351 159.333 95.2351 160.717Z" fill="#1FAAEE"/>
<path d="M171.43 165.152V185.893C171.43 187.741 169.933 189.238 168.086 189.238H160.096V165.152C160.096 141.98 141.313 123.197 118.144 123.197H129.475C152.646 123.196 171.43 141.98 171.43 165.152Z" fill="#1FAAEE"/>
<path d="M131.424 113.156V128.989C131.424 133.903 127.439 137.888 122.526 137.888C117.609 137.888 113.624 133.903 113.624 128.989V113.156H131.424Z" fill="#FDB0A0"/>
<path d="M131.424 113.155V125.094C128.732 126.309 125.715 126.991 122.526 126.991C119.336 126.991 116.316 126.309 113.624 125.094V113.155H131.424Z" fill="#F9A08F"/>
<path d="M154.793 91.6837C160.422 91.6837 164.986 87.1203 164.986 81.4911C164.986 75.8619 160.422 71.2986 154.793 71.2986C149.164 71.2986 144.6 75.8619 144.6 81.4911C144.6 87.1203 149.164 91.6837 154.793 91.6837Z" fill="#F9A08F"/>
<path d="M90.2571 91.6837C95.8863 91.6837 100.45 87.1203 100.45 81.4911C100.45 75.8619 95.8863 71.2986 90.2571 71.2986C84.6279 71.2986 80.0646 75.8619 80.0646 81.4911C80.0646 87.1203 84.6279 91.6837 90.2571 91.6837Z" fill="#F9A08F"/>
<path d="M151.911 68.093V87.6725C151.911 103.877 138.951 117.302 122.746 117.426C106.414 117.543 93.1362 104.345 93.1362 88.0404V68.093C93.1362 51.8616 106.297 38.7073 122.525 38.7073C130.643 38.7073 137.988 41.995 143.306 47.3131C148.62 52.6344 151.911 59.9791 151.911 68.093Z" fill="#FDB0A0"/>
<path d="M151.911 68.093V72.3675C149.553 73.1402 147.045 73.548 144.463 73.548H100.591C98.0094 73.548 95.5009 73.1366 93.1362 72.3639V68.093C93.1362 51.8616 106.297 38.7073 122.525 38.7073C130.643 38.7073 137.988 41.995 143.306 47.3131C148.62 52.6344 151.911 59.9791 151.911 68.093Z" fill="#F9A08F"/>
<path d="M110.239 23C97.3385 23 86.1778 32.1899 83.9348 44.8939C83.7657 45.8524 83.627 46.8238 83.5202 47.8063C83.2098 50.6645 83.6179 53.5565 84.7121 56.2154L84.716 56.2248C87.3635 62.6588 93.6332 66.8586 100.591 66.8586H144.464C151.429 66.8586 157.703 62.6503 160.346 56.2063C161.434 53.5523 161.84 50.6675 161.531 47.8157C161.424 46.83 161.285 45.8556 161.115 44.8942C158.872 32.1902 147.711 23 134.811 23L110.239 23Z" fill="#3F5959"/>
<path d="M161.631 49.6778C161.631 51.912 161.196 54.1296 160.347 56.2066C157.704 62.6516 151.43 66.8592 144.463 66.8592H134.008C140.974 66.8592 147.249 62.6516 149.891 56.2066C150.741 54.1296 151.175 51.9123 151.175 49.6778C151.175 49.059 151.142 48.4369 151.075 47.8148C150.968 46.8316 150.831 45.8546 150.661 44.8949C148.416 32.1886 137.255 23.001 124.355 23.001H134.81C147.71 23.001 158.871 32.1886 161.116 44.8949C161.286 45.8546 161.424 46.8313 161.53 47.8148C161.597 48.4369 161.631 49.059 161.631 49.6778Z" fill="#384848"/>
<path d="M54.3045 171.095H46.2857C44.4382 171.095 42.9408 169.597 42.9408 167.75V159.731C42.9408 157.884 44.4382 156.386 46.2857 156.386H54.3045C56.1519 156.386 57.6494 157.884 57.6494 159.731V167.75C57.6491 169.597 56.1516 171.095 54.3045 171.095Z" fill="#24D1F8"/>
<path d="M57.6486 159.73V167.751C57.6486 169.598 56.1534 171.096 54.3036 171.096H46.9518C48.7983 171.096 50.2967 169.598 50.2967 167.751V159.73C50.2967 157.884 48.7983 156.385 46.9518 156.385H54.3036C56.1534 156.385 57.6486 157.884 57.6486 159.73Z" fill="#21C1F8"/>
<path d="M44.5584 101.31C44.2909 101.395 44.0019 101.395 43.7344 101.31C36.6835 99.0677 31.1918 95.2761 27.3913 90.02C26.6731 89.0265 26.0773 88.0609 25.5861 87.1625C24.2461 84.7118 23.5626 81.9561 23.5626 79.1632V58.3219C23.5626 57.6907 23.9941 57.1414 24.6075 56.992L43.8224 52.3126C44.035 52.2607 44.2575 52.2607 44.4701 52.3126L63.685 56.992C64.2984 57.1414 64.7299 57.6907 64.7299 58.3219V81.1863C64.7299 82.0048 64.5922 82.8169 64.3178 83.588C63.7772 85.1092 62.7431 87.4729 60.9008 90.0204C57.1011 95.2761 51.6093 99.0677 44.5584 101.31Z" fill="#31A7FB"/>
<path d="M64.7285 58.3215V81.1869C64.7285 82.0032 64.5915 82.8158 64.3171 83.5886C63.7785 85.1071 62.745 87.4718 60.9021 90.0206C57.1023 95.2753 51.6102 99.0683 44.559 101.31C44.2915 101.393 44.0005 101.393 43.7327 101.31C41.3979 100.567 39.2338 99.6537 37.2471 98.5735C43.8531 96.3023 49.0276 92.6162 52.6567 87.5959C54.4996 85.0471 55.5334 82.6856 56.075 81.1638C56.3493 80.3911 56.4863 79.5784 56.4863 78.7621V55.8968C56.4863 55.6393 56.4162 55.3984 56.2925 55.1909L63.6846 56.9907C64.297 57.141 64.7285 57.6894 64.7285 58.3215Z" fill="#1C96F9"/>
<path d="M136.374 78.2018L136.345 78.2015C136.335 78.2012 136.326 78.2012 136.316 78.2012C134.944 78.2012 133.838 79.3054 133.822 80.6811C133.806 82.0666 134.93 83.203 136.316 83.2185C136.326 83.2189 136.335 83.2189 136.345 83.2189C137.717 83.2189 138.837 82.1146 138.853 80.7389C138.869 79.3535 137.759 78.2174 136.374 78.2018Z" fill="#3F5959"/>
<path d="M108.734 78.2017H108.706C107.32 78.2017 106.211 79.3247 106.211 80.7102C106.211 82.0959 107.348 83.2187 108.734 83.2187C110.119 83.2187 111.242 82.0956 111.242 80.7102C111.242 79.3247 110.119 78.2017 108.734 78.2017Z" fill="#3F5959"/>
<path d="M66.1561 112.011C65.6853 111.541 65.0477 111.276 64.3821 111.276H19.5085C18.1228 111.276 17 112.399 17 113.785C17 115.17 18.1231 116.293 19.5085 116.293H63.3431L87.0403 139.991C87.5302 140.481 88.1721 140.726 88.8143 140.726C89.4563 140.726 90.0985 140.481 90.5884 139.991C91.568 139.011 91.568 137.423 90.5884 136.443L66.1561 112.011Z" fill="#EFF5F6"/>
<path d="M57.7533 123.493H26.0244C24.6386 123.493 23.5159 124.616 23.5159 126.001C23.5159 127.387 24.639 128.51 26.0244 128.51H57.7533C59.1391 128.51 60.2619 127.387 60.2619 126.001C60.2619 124.616 59.1391 123.493 57.7533 123.493Z" fill="#21C1F8"/>
<path d="M57.7533 132.301H39.6777C38.292 132.301 37.1692 133.424 37.1692 134.81C37.1692 136.195 38.2923 137.318 39.6777 137.318H57.7533C59.1391 137.318 60.2618 136.195 60.2618 134.81C60.2618 133.424 59.1391 132.301 57.7533 132.301Z" fill="#7DA2B0"/>
<path d="M57.7533 141.109H39.6777C38.292 141.109 37.1692 142.232 37.1692 143.618C37.1692 145.003 38.2923 146.126 39.6777 146.126H57.7533C59.1391 146.126 60.2618 145.003 60.2618 143.618C60.2618 142.232 59.1391 141.109 57.7533 141.109Z" fill="#7DA2B0"/>
<path d="M38.1018 77.9554H41.6376V81.4913C41.6376 82.877 42.7607 83.9998 44.1461 83.9998C45.5319 83.9998 46.6547 82.8767 46.6547 81.4913V77.9554H50.1905C51.5762 77.9554 52.699 76.8324 52.699 75.4469C52.699 74.0615 51.5759 72.9384 50.1905 72.9384H46.6547V69.4026C46.6547 68.0168 45.5316 66.894 44.1461 66.894C42.7604 66.894 41.6376 68.0171 41.6376 69.4026V72.9384H38.1018C36.716 72.9384 35.5933 74.0615 35.5933 75.4469C35.5933 76.8324 36.7164 77.9554 38.1018 77.9554Z" fill="#EFF5F6"/>
<path d="M131.182 92.5774C129.793 92.5313 128.635 93.6093 128.585 94.9941C128.466 98.2708 125.804 100.837 122.524 100.837C119.243 100.837 116.581 98.2711 116.463 94.9944C116.414 93.6096 115.25 92.5261 113.866 92.5774C112.481 92.6274 111.399 93.7901 111.449 95.1746C111.665 101.163 116.529 105.854 122.524 105.854C128.518 105.854 133.383 101.163 133.599 95.1749C133.649 93.7901 132.567 92.6274 131.182 92.5774Z" fill="#FC7C6A"/>
</svg>
