<svg width="221" height="218" viewBox="0 0 221 218" fill="none" xmlns="http://www.w3.org/2000/svg">
<rect width="221" height="218" rx="109" fill="#BEC6ED"/>
<rect x="8" y="8" width="205" height="202" rx="101" fill="#E2E2E2"/>
<path d="M172.597 44.3583V53.7611C172.597 56.3941 170.529 58.4624 167.896 58.4624C165.263 58.4624 163.195 56.3941 163.195 53.7611V44.3583C163.195 41.7253 165.263 39.657 167.896 39.657C170.529 39.657 172.597 41.7253 172.597 44.3583Z" fill="#4D6699"/>
<path d="M167.896 58.4624V39.657C170.529 39.657 172.597 41.7253 172.597 44.3583V53.7611C172.597 56.3941 170.529 58.4624 167.896 58.4624Z" fill="#404B80"/>
<path d="M172.597 167.22V176.623C172.597 179.256 170.529 181.324 167.896 181.324C165.263 181.324 163.195 179.256 163.195 176.623V167.22C163.195 164.587 165.263 162.519 167.896 162.519C170.529 162.519 172.597 164.587 172.597 167.22Z" fill="#4D6699"/>
<path d="M172.597 167.22V176.623C172.597 179.256 170.529 181.324 167.896 181.324V162.519C170.529 162.519 172.597 164.587 172.597 167.22Z" fill="#404B80"/>
<path d="M97.3756 25.5527V34.9554C97.3756 37.5885 95.3073 39.6567 92.6742 39.6567C90.0411 39.6567 87.9728 37.5885 87.9728 34.9554V25.5527C87.9728 22.9196 90.0411 20.8513 92.6742 20.8513C95.3073 20.8513 97.3756 22.9196 97.3756 25.5527Z" fill="#4D6699"/>
<path d="M97.3756 25.5527V34.9554C97.3756 37.5885 95.3073 39.6567 92.6742 39.6567V20.8513C95.3073 20.8513 97.3756 22.9196 97.3756 25.5527Z" fill="#404B80"/>
<path d="M139.688 39.657H92.6742H45.6606C43.062 39.657 40.9593 41.7597 40.9593 44.3583V176.623C40.9593 179.222 43.062 181.325 45.6606 181.325H92.6742H139.688C142.286 181.325 144.389 179.222 144.389 176.623V44.3583C144.389 41.7597 142.286 39.657 139.688 39.657Z" fill="#FFBE40"/>
<path d="M144.389 176.623V44.3583C144.389 41.7597 142.286 39.657 139.688 39.657H92.6742V181.325H139.688C142.286 181.325 144.389 179.222 144.389 176.623Z" fill="#FF9F40"/>
<path d="M106.778 49.0593L99.479 44.3579H92.6742H85.8942L78.5701 49.0593H50.362V171.921H92.6742H134.986V49.0593H106.778Z" fill="#F9F4F3"/>
<path d="M134.986 49.0593H106.778L99.4789 44.3579H92.6742V171.921H134.986V49.0593Z" fill="#F0E6E1"/>
<path d="M80.5168 148.101L83.8407 144.777C85.6771 142.941 85.6771 139.966 83.8407 138.129C82.0044 136.293 79.029 136.293 77.1927 138.129L73.8688 141.453L70.5449 138.129C68.7086 136.293 65.7333 136.293 63.8969 138.129C62.0606 139.966 62.0606 142.941 63.8969 144.777L67.2208 148.101L63.8969 151.425C62.0606 153.262 62.0606 156.237 63.8969 158.073C65.7333 159.91 68.7083 159.91 70.5449 158.073L73.8688 154.749L77.1927 158.073C79.029 159.91 82.004 159.91 83.8407 158.073C85.6771 156.237 85.6771 153.262 83.8407 151.425L80.5168 148.101Z" fill="#FF6673"/>
<path d="M120.882 96.3866H111.48C108.881 96.3866 106.778 94.2838 106.778 91.6852C106.778 89.0866 108.881 86.9839 111.48 86.9839H120.882C123.481 86.9839 125.584 89.0866 125.584 91.6852C125.584 94.2838 123.481 96.3866 120.882 96.3866Z" fill="#B3CCFF"/>
<path d="M120.882 124.595H102.077C99.4784 124.595 97.3756 122.492 97.3756 119.893C97.3756 117.295 99.4784 115.192 102.077 115.192H120.882C123.481 115.192 125.584 117.295 125.584 119.893C125.584 122.492 123.481 124.595 120.882 124.595Z" fill="#B3CCFF"/>
<path d="M120.882 152.803H102.077C99.4784 152.803 97.3756 150.7 97.3756 148.102C97.3756 145.503 99.4784 143.4 102.077 143.4H120.882C123.481 143.4 125.584 145.503 125.584 148.102C125.584 150.7 123.481 152.803 120.882 152.803Z" fill="#B3CCFF"/>
<path d="M70.5449 95.0091C71.4632 95.9274 72.6661 96.3866 73.8687 96.3866C75.0713 96.3866 76.2746 95.9274 77.1926 95.0091L92.6742 79.5279L95.998 76.204C97.8344 74.3676 97.8344 71.3923 95.998 69.556C95.0797 68.6376 93.8768 68.1785 92.6742 68.1785C91.4716 68.1785 90.2683 68.6376 89.3503 69.556L73.8687 85.0372L67.7899 78.9584C65.9535 77.122 62.9782 77.122 61.1419 78.9584C59.3055 80.7947 59.3055 83.77 61.1419 85.6064L70.5449 95.0091Z" fill="#7ED96C"/>
<path d="M92.6742 96.3865C91.4712 96.3865 90.2683 96.8456 89.3503 97.764L73.8687 113.245L67.7899 107.166C65.9535 105.33 62.9782 105.33 61.1419 107.166C59.3055 109.003 59.3055 111.978 61.1419 113.814L70.5446 123.217C71.4629 124.135 72.6658 124.595 73.8684 124.595C75.071 124.595 76.2743 124.135 77.1923 123.217L92.6742 107.736L95.998 104.412C97.8344 102.576 97.8344 99.6003 95.998 97.764C95.08 96.8456 93.8771 96.3865 92.6742 96.3865V96.3865Z" fill="#7ED96C"/>
<path d="M95.9981 69.556C95.0797 68.6376 93.8768 68.1785 92.6742 68.1785V79.5279L95.9981 76.204C97.8347 74.3673 97.8347 71.3923 95.9981 69.556V69.556Z" fill="#48B348"/>
<path d="M95.9981 97.764C95.0797 96.8456 93.8768 96.3865 92.6742 96.3865V107.736L95.9981 104.412C97.8347 102.575 97.8347 99.6003 95.9981 97.764V97.764Z" fill="#48B348"/>
<path d="M102.077 30.2539H92.6742H83.2715C78.0784 30.2539 73.8688 34.4635 73.8688 39.6566V44.358C73.8688 46.9544 75.9737 49.0593 78.5701 49.0593H92.6742H106.778C109.375 49.0593 111.48 46.9544 111.48 44.358V39.6566C111.48 34.4635 107.27 30.2539 102.077 30.2539Z" fill="#4D6699"/>
<path d="M111.48 44.358V39.6566C111.48 34.4635 107.27 30.2539 102.077 30.2539H92.6742V49.0593H106.778C109.375 49.0593 111.48 46.9544 111.48 44.358Z" fill="#404B80"/>
<path d="M182 105.789V144.247C182 153.931 178.051 163.647 171.187 170.511C170.341 171.452 169.118 171.922 167.896 171.922C166.674 171.922 165.451 171.452 164.605 170.511C157.741 163.647 153.792 153.931 153.792 144.247V105.789L163.195 101.088H172.597L182 105.789Z" fill="#CDE2FF"/>
<path d="M182 105.789V144.247C182 153.931 178.051 163.647 171.187 170.511C170.341 171.452 169.118 171.922 167.896 171.922V101.088H172.597L182 105.789Z" fill="#B3CCFF"/>
<path d="M182 63.4768V96.3863L172.597 101.088H163.195L153.792 96.3863V63.4768C153.792 55.6723 160.091 49.0593 167.896 49.0593C175.701 49.0593 182 55.6723 182 63.4768Z" fill="#CDE2FF"/>
<path d="M182 63.4768V96.3863L172.597 101.088H167.896V49.0593C175.701 49.0593 182 55.6723 182 63.4768Z" fill="#B3CCFF"/>
<path d="M153.792 96.3865H182V105.789H153.792V96.3865Z" fill="#4D6699"/>
<path d="M167.896 96.3865H182V105.789H167.896V96.3865Z" fill="#404B80"/>
</svg>
