<svg width="221" height="219" viewBox="0 0 221 219" fill="none" xmlns="http://www.w3.org/2000/svg">
<rect y="1" width="221" height="218" rx="109" fill="#BEC6ED"/>
<path d="M48.6883 189.424L47.109 189.839C64.4821 203.781 86.5386 212.126 110.548 212.126C134.557 212.126 156.614 203.781 173.987 189.839L172.408 189.424H48.6883Z" fill="#D88A55"/>
<path d="M110.548 9.22241C54.5177 9.22241 9.09619 54.6439 9.09619 110.674C9.09619 134.487 17.3039 156.381 31.04 173.689L32.9871 174.103H188.109L190.056 173.689C203.792 156.381 212 134.487 212 110.674C212 54.6439 166.579 9.22241 110.548 9.22241Z" fill="#E2E2E2"/>
<path d="M95.2268 141.484H125.869V160.779H95.2268V141.484Z" fill="#838383"/>
<path d="M95.2268 141.484H107.649V160.779H95.2268V141.484Z" fill="#5A5A5A"/>
<path d="M146.988 174.103V164.506C146.988 162.219 145.134 160.365 142.847 160.365H78.2491C75.962 160.365 74.1082 162.219 74.1082 164.506V174.103H146.988Z" fill="#9C9C9C"/>
<path d="M98.9535 160.365H78.2491C75.962 160.365 74.1082 162.219 74.1082 164.506V174.103H94.8126V164.506C94.8126 162.219 96.6665 160.365 98.9535 160.365Z" fill="#838383"/>
<path d="M47.1098 189.838H173.988C179.927 185.072 185.323 179.655 190.057 173.689H31.0406C35.7754 179.655 41.1701 185.072 47.1098 189.838Z" fill="#FFBD86"/>
<path d="M58.7648 180.552C56.149 178.39 53.6442 176.098 51.2578 173.689H31.0001C35.7348 179.655 41.1296 185.072 47.0693 189.838H173.948C177.182 187.243 180.248 184.449 183.14 181.484H61.3839C60.4299 181.484 59.5003 181.16 58.7648 180.552Z" fill="#F6A96C"/>
<path d="M183.842 42.5171H37.2539C34.9669 42.5171 33.113 44.371 33.113 46.658V105.419C37.4109 102.378 42.6499 100.584 48.3035 100.584C62.8443 100.584 74.6744 112.414 74.6744 126.955C74.6744 132.5 72.9501 137.648 70.015 141.899H183.842C186.129 141.899 187.983 140.045 187.983 137.758V46.6584C187.983 44.371 186.129 42.5171 183.842 42.5171Z" fill="#9C9C9C"/>
<path d="M179.701 48.7284H41.3952C40.2519 48.7284 39.3247 49.6555 39.3247 50.7988V102.16C42.1285 101.142 45.1522 100.584 48.3038 100.584C62.8446 100.584 74.6747 112.414 74.6747 126.955C74.6747 127.106 74.666 127.256 74.6631 127.406H92.3729L92.787 126.992V79.8025C92.787 74.7088 96.9308 70.565 102.025 70.565H163.794C168.887 70.565 173.031 74.7088 173.031 79.8025V126.991L173.445 127.405H179.701C180.844 127.405 181.772 126.478 181.772 125.335V50.7988C181.772 49.6555 180.844 48.7284 179.701 48.7284Z" fill="#D8ECFE"/>
<path d="M48.3038 100.17C49.4716 100.17 50.6194 100.253 51.7474 100.398V88.4308H39.3247V101.717C42.1322 100.718 45.1534 100.17 48.3038 100.17Z" fill="#B3DAFE"/>
<path d="M92.7871 79.8024C92.7871 74.7087 96.9309 70.5649 102.025 70.5649H111.169V64.048C111.169 61.8566 112.814 60.0483 114.994 59.8412L115.681 59.7762L115.3 59.2006C113.954 57.1646 113.083 54.8063 112.782 52.3806L112.737 52.0174H109.26C105.903 52.0174 103.171 49.2857 103.171 45.9282V41.1695C103.171 39.6067 103.767 38.1185 104.85 36.9793L104.964 36.8597V30.5817H26.066C23.5546 30.5817 21.5189 32.6173 21.5189 35.1288V83.8837C21.5189 86.3952 23.5546 88.4308 26.066 88.4308H68.415C69.5765 88.4308 70.6842 88.9186 71.4689 89.775L83.2638 102.654C84.1044 103.572 85.6341 102.977 85.6341 101.733V90.5013C85.6341 89.358 86.5612 88.4308 87.7045 88.4308H92.7871V79.8024Z" fill="#0182FC"/>
<path d="M38.0825 83.8837V35.1288C38.0825 32.6173 40.1182 30.5817 42.6296 30.5817H26.066C23.5546 30.5817 21.5189 32.6173 21.5189 35.1288V83.8837C21.5189 86.3952 23.5546 88.4308 26.066 88.4308H42.6296C40.1182 88.4308 38.0825 86.3952 38.0825 83.8837Z" fill="#0172FB"/>
<path d="M119.167 71.7595C119.167 71.1048 119.697 70.5727 120.35 70.5661L120.361 70.1508H102.024C96.6935 70.1508 92.3721 74.4718 92.3721 79.8024V127.405H118.752L119.167 127.238V71.7595H119.167Z" fill="white"/>
<path d="M163.793 70.1511H145.456L145.467 70.5665C146.121 70.5731 146.65 71.1052 146.65 71.7599V127.238L147.064 127.405H173.445V79.8023C173.445 74.4721 169.124 70.1511 163.793 70.1511Z" fill="white"/>
<path d="M110.676 70.1514H102.024C96.6942 70.1514 92.3728 74.4724 92.3728 79.803V127.406H101.024V79.8026C101.024 74.4724 105.345 70.1514 110.676 70.1514Z" fill="#F8F6F6"/>
<path d="M109.259 35.0805H112.654V32.7636C112.654 31.1329 113.98 29.8066 115.61 29.8066H126.331C132.087 29.8066 137.26 26.6028 139.832 21.4457C140.307 20.4921 141.331 19.8759 142.441 19.8759H144.778C149.402 19.8759 153.164 23.6379 153.164 28.2621V35.0809H156.558C158.455 35.0809 160.151 35.953 161.269 37.317V25.3875C161.269 11.4285 149.953 0.112671 135.994 0.112671H129.824C115.865 0.112671 104.549 11.4285 104.549 25.3875V37.3166C105.667 35.953 107.363 35.0805 109.259 35.0805Z" fill="#883F2E"/>
<path d="M109.259 35.0805H112.654V32.7636C112.654 31.133 113.98 29.8066 115.61 29.8066H121.739V25.3875C121.739 13.3221 130.196 3.23781 141.504 0.722211C139.729 0.327583 137.887 0.112671 135.994 0.112671H129.824C115.865 0.112671 104.549 11.4285 104.549 25.3875V37.3166C105.667 35.953 107.363 35.0805 109.259 35.0805Z" fill="#6D3326"/>
<path d="M161.31 83.203L148.86 61.291C145.938 64.4228 141.78 66.386 137.169 66.386H128.649C124.039 66.386 119.88 64.4224 116.958 61.291L104.508 83.203C103.979 83.9678 104.185 85.0183 104.965 85.5264L113.572 91.1394L105.584 96.4621C104.871 96.9379 104.656 97.8899 105.095 98.6258L119.168 122.175V71.76C119.168 71.1012 119.704 70.5654 120.363 70.5654H145.457C146.116 70.5654 146.651 71.1012 146.651 71.76V122.175L160.724 98.6258C161.164 97.8895 160.949 96.9375 160.236 96.4621L152.248 91.1394L160.856 85.5264C161.633 85.0183 161.839 83.9678 161.31 83.203Z" fill="#EAF6FF"/>
<path d="M145.455 70.1514H120.362C119.473 70.1514 118.753 70.8715 118.753 71.7601V127.406H147.064V71.7597C147.064 70.8715 146.344 70.1514 145.455 70.1514Z" fill="#8AC9FE"/>
<path d="M130.217 100.325H135.601V127.405H130.217V100.325Z" fill="#838383"/>
<path d="M150.422 59.4071H150.373C148.801 61.7012 146.649 63.567 144.129 64.7903H149.68V82.5961C149.68 89.6315 143.956 95.3555 136.92 95.3555H128.898C121.862 95.3555 116.139 89.6315 116.139 82.5961V64.7903H121.689C119.169 63.567 117.018 61.7012 115.446 59.4071H115.397C112.838 59.4071 110.756 61.4891 110.756 64.0482V82.5961C110.756 92.6001 118.895 100.739 128.898 100.739H136.92C146.924 100.739 155.063 92.6001 155.063 82.5961V64.0482C155.063 61.4896 152.981 59.4071 150.422 59.4071Z" fill="#9C9C9C"/>
<path d="M112.653 50.3914V34.6667H109.259C105.667 34.6667 102.756 37.5782 102.756 41.17V45.9287C102.756 49.5206 105.667 52.432 109.259 52.432H112.788C112.703 51.7633 112.653 51.0829 112.653 50.3914Z" fill="#F6A96C"/>
<path d="M156.558 34.6669H153.164V50.3915C153.164 51.083 153.115 51.7634 153.029 52.4321H156.558C160.15 52.4321 163.061 49.5207 163.061 45.9289V41.1701C163.061 37.5783 160.149 34.6669 156.558 34.6669Z" fill="#FFBD86"/>
<path d="M141.361 69.186V65.8248C140.024 66.1884 138.619 66.3863 137.168 66.3863H128.648C127.197 66.3863 125.792 66.1884 124.455 65.8248V69.186C124.455 69.7189 124.022 70.1512 123.489 70.1512H121.648L132.087 86.9856C132.465 87.5944 133.35 87.5944 133.728 86.9856L144.167 70.1512H142.326C141.793 70.1512 141.361 69.7189 141.361 69.186Z" fill="#FFBD86"/>
<path d="M132.107 70.1512C132.64 70.1512 133.072 69.7189 133.072 69.186V66.3863H128.649C127.198 66.3863 125.793 66.1884 124.456 65.8248V69.186C124.456 69.7189 124.024 70.1512 123.491 70.1512H121.649L132.088 86.9856C132.466 87.5944 133.351 87.5944 133.729 86.9856L137.217 81.3611L130.265 70.1508H132.107V70.1512Z" fill="#F6A96C"/>
<path d="M144.777 19.4613H142.44C141.19 19.4613 140.018 20.1417 139.46 21.2605C137.057 26.0801 132.082 29.3924 126.331 29.3924H115.609C113.748 29.3924 112.239 30.9018 112.239 32.7631V50.3913C112.239 59.4541 119.585 66.8004 128.648 66.8004H137.168C146.23 66.8004 153.577 59.4537 153.577 50.3913V28.2615C153.577 23.4014 149.637 19.4613 144.777 19.4613Z" fill="#FED2A4"/>
<path d="M120.899 50.3915V32.7633C120.899 30.9015 122.409 29.3926 124.27 29.3926H115.609C113.748 29.3926 112.239 30.9019 112.239 32.7633V50.3915C112.239 59.4538 119.585 66.8006 128.648 66.8006H137.168C137.191 66.8006 137.214 66.799 137.238 66.799C128.208 66.7609 120.899 59.4302 120.899 50.3915Z" fill="#FFBD86"/>
<path d="M122.386 42.8997C120.67 42.8997 119.28 41.5096 119.28 39.7941V36.5124C119.28 34.7968 120.67 33.4067 122.386 33.4067C124.101 33.4067 125.491 34.7968 125.491 36.5124V39.7941C125.491 41.5096 124.101 42.8997 122.386 42.8997Z" fill="#D88A55"/>
<path d="M143.141 42.8997C141.425 42.8997 140.035 41.5096 140.035 39.7941V36.5124C140.035 34.7968 141.425 33.4067 143.141 33.4067C144.856 33.4067 146.246 34.7968 146.246 36.5124V39.7941C146.246 41.5096 144.856 42.8997 143.141 42.8997Z" fill="#D88A55"/>
<path d="M133.465 61.0833C130.118 61.0833 126.969 59.7789 124.6 57.4091C123.387 56.1962 123.387 54.2297 124.6 53.0172C125.813 51.8048 127.78 51.8044 128.992 53.0176C130.188 54.2135 131.776 54.8724 133.464 54.8724C135.152 54.8724 136.74 54.2135 137.936 53.0176C139.149 51.8044 141.116 51.8048 142.328 53.0172C143.541 54.2301 143.541 56.1966 142.328 57.4091C139.96 59.7789 136.812 61.0833 133.465 61.0833Z" fill="#D88A55"/>
<path d="M135.025 49.8505H132.908C130.612 49.8505 128.744 47.9821 128.744 45.686V40.7459C128.744 39.0304 130.135 37.6403 131.85 37.6403C133.565 37.6403 134.955 39.0304 134.955 40.7459V43.6388H135.025C136.741 43.6388 138.131 45.0289 138.131 46.7444C138.131 48.46 136.741 49.8505 135.025 49.8505Z" fill="#D88A55"/>
<path d="M48.3039 153.74C63.0968 153.74 75.0889 141.748 75.0889 126.955C75.0889 112.162 63.0968 100.17 48.3039 100.17C33.511 100.17 21.5189 112.162 21.5189 126.955C21.5189 141.748 33.511 153.74 48.3039 153.74Z" fill="#22B27F"/>
<path d="M34.6178 126.955C34.6178 114.421 43.2272 103.902 54.8531 100.98C52.7566 100.452 50.5636 100.17 48.3039 100.17C33.511 100.17 21.5189 112.162 21.5189 126.955C21.5189 141.748 33.511 153.74 48.3039 153.74C50.5636 153.74 52.757 153.457 54.8531 152.93C43.2267 150.007 34.6178 139.488 34.6178 126.955Z" fill="#09A76D"/>
<path d="M60.7316 122.109H53.9649C53.5144 122.109 53.1488 121.744 53.1488 121.294V114.527C53.1488 114.076 52.7835 113.711 52.3326 113.711H44.274C43.8235 113.711 43.4578 114.076 43.4578 114.527V121.294C43.4578 121.744 43.0926 122.109 42.6416 122.109H35.875C35.4245 122.109 35.0588 122.475 35.0588 122.926V130.985C35.0588 131.435 35.4241 131.801 35.875 131.801H42.6421C43.0926 131.801 43.4582 132.166 43.4582 132.617V139.384C43.4582 139.834 43.8235 140.2 44.2744 140.2H52.3334C52.7839 140.2 53.1496 139.835 53.1496 139.384V132.617C53.1496 132.166 53.5148 131.801 53.9658 131.801H60.7324C61.1829 131.801 61.5486 131.436 61.5486 130.985V122.926C61.5477 122.475 61.1821 122.109 60.7316 122.109Z" fill="white"/>
<path d="M48.5391 135.934C48.0886 135.934 47.7229 135.569 47.7229 135.118V128.351C47.7229 127.901 47.3577 127.535 46.9068 127.535H40.1405C39.69 127.535 39.3244 127.17 39.3244 126.719V122.109H35.875C35.4245 122.109 35.0588 122.475 35.0588 122.926V130.985C35.0588 131.435 35.4241 131.801 35.875 131.801H42.6416C43.0922 131.801 43.4578 132.166 43.4578 132.617V139.384C43.4578 139.834 43.823 140.199 44.2736 140.199H52.3326C52.7831 140.199 53.1488 139.834 53.1488 139.384V135.934H48.5391Z" fill="#F8F6F6"/>
<path d="M65.8265 50.3603H38.4965C36.7814 50.3603 35.3909 48.9702 35.3909 47.2546C35.3909 45.539 36.7814 44.1489 38.4965 44.1489H65.8265C67.5416 44.1489 68.9321 45.539 68.9321 47.2546C68.9321 48.9702 67.5416 50.3603 65.8265 50.3603Z" fill="white"/>
<path d="M82.3897 62.6917H38.4962C36.781 62.6917 35.3905 61.3016 35.3905 59.586C35.3905 57.8704 36.781 56.4803 38.4962 56.4803H82.3897C84.1048 56.4803 85.4953 57.8704 85.4953 59.586C85.4953 61.3016 84.1048 62.6917 82.3897 62.6917Z" fill="white"/>
<path d="M82.3897 75.0229H38.4962C36.781 75.0229 35.3905 73.6328 35.3905 71.9172C35.3905 70.2016 36.781 68.8115 38.4962 68.8115H82.3897C84.1048 68.8115 85.4953 70.2016 85.4953 71.9172C85.4953 73.6328 84.1048 75.0229 82.3897 75.0229Z" fill="white"/>
</svg>
