<svg width="221" height="219" viewBox="0 0 221 219" fill="none" xmlns="http://www.w3.org/2000/svg">
<rect y="1" width="221" height="218" rx="109" fill="#BEC6ED"/>
<path d="M110.452 9.02026C54.9738 9.02026 10 53.994 10 109.472C10 123.244 12.7741 136.368 17.7902 148.318L18.2002 148.236V142.683C18.2002 139.518 20.775 136.943 23.9403 136.943H28.746V133.522C28.746 124.41 36.1593 116.997 45.2709 116.997H85.2947C94.4067 116.997 101.82 124.41 101.82 133.522V148.423H202.704L203.238 148.013C208.174 136.144 210.904 123.128 210.904 109.472C210.904 53.994 165.93 9.02026 110.452 9.02026Z" fill="#E2E2E2"/>
<path d="M189.174 69.2914H156.006C153.815 70.4 151.342 71.029 148.723 71.029H136.143C133.524 71.029 131.05 70.4 128.859 69.2914H111.682C108.286 69.2914 105.532 72.045 105.532 75.4415V77.3452C106.257 77.1746 107.011 77.0815 107.787 77.0815H177.078C182.504 77.0815 186.919 81.4961 186.919 86.9217V148.423H195.324V75.4415C195.324 72.045 192.57 69.2914 189.174 69.2914Z" fill="#ACACAC"/>
<path d="M107.787 76.6715H117.832V75.4415C117.832 72.045 120.586 69.2914 123.982 69.2914H111.682C108.286 69.2914 105.532 72.045 105.532 75.4415V76.9237C106.258 76.7605 107.012 76.6715 107.787 76.6715Z" fill="#9C9C9C"/>
<path d="M101.82 167.283V208.694L102.23 209.588C104.942 209.807 107.684 209.924 110.452 209.924C144.226 209.924 174.11 193.252 192.32 167.693L192.044 167.283H101.82Z" fill="#FFBD86"/>
<path d="M177.078 76.6714H107.787C102.126 76.6714 97.5364 81.2606 97.5364 86.9216V122.434C100.197 125.368 101.819 129.259 101.819 133.522V148.423H187.328V86.9216C187.328 81.2606 182.739 76.6714 177.078 76.6714Z" fill="white"/>
<path d="M107.787 76.6714C102.126 76.6714 97.5364 81.2606 97.5364 86.9216V122.434C100.197 125.368 101.819 129.259 101.819 133.522V148.423H108.402V86.9216C108.402 81.2606 112.991 76.6714 118.652 76.6714H107.787Z" fill="#F8F6F6"/>
<path d="M173.888 93.8918L155.545 69.516C153.47 70.4844 151.159 71.0289 148.722 71.0289H136.143C133.706 71.0289 131.394 70.4844 129.319 69.516L110.976 93.8918C110.391 94.7389 110.619 95.9025 111.482 96.465L121.015 102.682L112.168 108.577C111.378 109.103 111.14 110.158 111.627 110.973L127.213 137.056V81.218C127.213 80.4882 127.806 79.8949 128.536 79.8949H156.329C157.058 79.8949 157.652 80.4882 157.652 81.218V137.056L173.238 110.974C173.725 110.158 173.487 109.104 172.697 108.577L163.85 102.682L173.383 96.4654C174.246 95.9025 174.474 94.7389 173.888 93.8918Z" fill="#EAF6FF"/>
<path d="M158.11 148.423V81.2176C158.11 80.2336 157.313 79.4362 156.329 79.4362H128.536C127.552 79.4362 126.754 80.234 126.754 81.2176V148.423H158.11Z" fill="#22B27F"/>
<path d="M151.795 78.3671V70.7328C150.799 70.9247 149.773 71.0288 148.722 71.0288H136.143C135.092 71.0288 134.066 70.9247 133.07 70.7328V78.3671C133.07 78.9575 132.592 79.436 132.002 79.436H129.962L141.524 98.0811C141.943 98.7552 142.923 98.7552 143.341 98.0811L154.904 79.436H152.864C152.273 79.436 151.795 78.9575 151.795 78.3671Z" fill="#FFBD86"/>
<path d="M140.44 79.436C141.03 79.436 141.509 78.9575 141.509 78.3671V71.0288H136.142C135.091 71.0288 134.065 70.9247 133.069 70.7328V78.3671C133.069 78.9575 132.591 79.436 132 79.436H129.96L141.523 98.0811C141.941 98.7552 142.922 98.7552 143.339 98.0811L146.651 92.7416L139.474 81.1695C139.006 80.4135 139.55 79.436 140.44 79.436Z" fill="#F6A96C"/>
<path d="M152.681 12.0604V25.6443H159.173C162.338 25.6443 164.913 28.2192 164.913 31.3844V37.1291H168.623C170.186 37.1291 171.622 37.6645 172.771 38.5542V19.5155C172.771 11.5811 166.339 5.14844 158.404 5.14844H150.402C151.833 7.08367 152.681 9.47443 152.681 12.0604Z" fill="#FB8801"/>
<path d="M116.238 37.1291H119.949V31.3845C119.949 28.2192 122.523 25.6444 125.689 25.6444H153.091V12.0604C153.091 5.3994 147.691 0 141.031 0H124.151C117.49 0 112.09 5.3994 112.09 12.0604V38.5543C113.239 37.6646 114.676 37.1291 116.238 37.1291Z" fill="#FE9901"/>
<path d="M116.238 37.1291H119.949V31.3845C119.949 28.6665 121.849 26.3885 124.39 25.7981V12.0604C124.391 5.3994 129.79 0 136.451 0H124.151C117.49 0 112.09 5.3994 112.09 12.0604V38.5543C113.239 37.6646 114.676 37.1291 116.238 37.1291Z" fill="#FB8801"/>
<path d="M119.949 54.8361V36.7191H116.239C112.261 36.7191 109.036 39.9438 109.036 43.9217V49.192C109.036 53.1699 112.261 56.3946 116.239 56.3946H120.026C119.977 55.8817 119.949 55.3622 119.949 54.8361Z" fill="#FFBD86"/>
<path d="M168.625 36.7191H164.914V54.8365C164.914 55.3626 164.887 55.8821 164.837 56.3954H168.625C172.602 56.3954 175.827 53.1707 175.827 49.1928V43.9225C175.827 39.9438 172.602 36.7191 168.625 36.7191Z" fill="#FFBD86"/>
<path d="M119.539 31.3844V54.8364C119.539 64.0058 126.973 71.4389 136.142 71.4389H148.721C157.89 71.4389 165.323 64.0054 165.323 54.8364V31.3844C165.323 27.9879 162.57 25.2343 159.173 25.2343H125.689C122.293 25.2343 119.539 27.9879 119.539 31.3844Z" fill="#FED2A4"/>
<path d="M130.778 44.6028C129.079 44.6028 127.702 43.2264 127.702 41.5277V37.8934C127.702 36.1948 129.079 34.8184 130.778 34.8184C132.476 34.8184 133.853 36.1948 133.853 37.8934V41.5277C133.853 43.2264 132.476 44.6028 130.778 44.6028Z" fill="#EA9B58"/>
<path d="M153.764 44.6027C152.066 44.6027 150.689 43.2263 150.689 41.5276V37.8933C150.689 36.1946 152.066 34.8182 153.764 34.8182C155.462 34.8182 156.839 36.1946 156.839 37.8933V41.5276C156.839 43.2263 155.462 44.6027 153.764 44.6027Z" fill="#EA9B58"/>
<path d="M143.048 64.7331C139.586 64.7331 136.124 63.4154 133.488 60.7798C132.288 59.5789 132.288 57.6318 133.488 56.4313C134.689 55.23 136.636 55.2304 137.837 56.4309C140.71 59.3046 145.386 59.3042 148.259 56.4309C149.46 55.2304 151.407 55.2304 152.608 56.4309C153.808 57.6322 153.808 59.5789 152.608 60.7798C149.972 63.4154 146.51 64.7331 143.048 64.7331Z" fill="#EA9B58"/>
<path d="M144.455 52H142.515C140.577 52 139 50.2129 139 48.0162V42.8843C139 41.291 140.139 40 141.545 40C142.95 40 144.089 41.291 144.089 42.8843V46.2313H144.455C145.861 46.2313 147 47.5224 147 49.1157C147 50.709 145.861 52 144.455 52V52Z" fill="#EA9B58"/>
<path d="M177.605 148.423V95.8682C177.605 95.1035 176.985 94.484 176.221 94.484H133.567C132.802 94.484 132.182 95.1035 132.182 95.8682V148.423H177.605Z" fill="#0182FC"/>
<path d="M140.793 148.423V95.8682C140.793 95.1035 141.412 94.484 142.177 94.484H133.567C132.802 94.484 132.182 95.1035 132.182 95.8682V148.423H140.793Z" fill="#0172FB"/>
<path d="M146.217 99.177H163.57C164.334 99.177 164.954 98.5571 164.954 97.7928V92.2052C164.954 91.4406 164.334 90.821 163.57 90.821H146.217C145.453 90.821 144.833 91.441 144.833 92.2052V97.7928C144.833 98.5571 145.453 99.177 146.217 99.177Z" fill="#9C9C9C"/>
<path d="M153.093 97.7928V92.2052C153.093 91.4406 153.713 90.821 154.477 90.821H146.217C145.453 90.821 144.833 91.4406 144.833 92.2052V97.7928C144.833 98.5575 145.453 99.177 146.217 99.177H154.477C153.713 99.177 153.093 98.5571 153.093 97.7928Z" fill="#838383"/>
<path d="M166.657 141.403C166.657 142.676 167.454 143.77 168.573 144.217C167.397 144.687 166.577 145.87 166.663 147.226C166.691 147.659 166.814 148.062 167.008 148.423H181.178C182.098 147.465 182.667 146.166 182.667 144.733V132.443C182.667 129.499 180.28 127.113 177.337 127.113H169.785C168.169 127.113 166.765 128.337 166.663 129.95C166.577 131.305 167.397 132.489 168.572 132.958C167.453 133.405 166.657 134.5 166.657 135.773C166.657 137.047 167.454 138.141 168.572 138.588C167.454 139.035 166.657 140.129 166.657 141.403Z" fill="#FED2A4"/>
<path d="M166.657 141.403C166.657 142.676 167.454 143.77 168.573 144.217C167.397 144.687 166.577 145.87 166.663 147.226C166.691 147.659 166.814 148.062 167.008 148.423H173.833C172.911 147.466 172.344 146.167 172.344 144.733V132.443C172.344 129.556 174.64 127.211 177.505 127.122C177.449 127.12 177.394 127.113 177.337 127.113H169.785C168.169 127.113 166.765 128.337 166.663 129.95C166.577 131.305 167.397 132.489 168.572 132.958C167.453 133.405 166.657 134.5 166.657 135.773C166.657 137.047 167.454 138.141 168.572 138.588C167.454 139.035 166.657 140.129 166.657 141.403Z" fill="#FFBD86"/>
<path d="M101.82 148.013V167.693H192.32C196.659 161.603 200.331 155.007 203.239 148.013H101.82Z" fill="#F6A96C"/>
<path d="M118.242 155.393V148.013H101.82V167.693H192.32C194.2 165.054 195.947 162.314 197.569 159.493H122.343C120.078 159.493 118.242 157.658 118.242 155.393Z" fill="#EA9B58"/>
<path d="M68.6629 108.236V112.862C68.6629 114.09 68.4805 115.302 68.1209 116.466L67.9569 116.997H79.1292C79.1304 116.933 79.1341 116.871 79.1341 116.808V108.053C78.3219 108.173 77.4937 108.237 76.6524 108.237H68.6629V108.236Z" fill="#FFBD86"/>
<path d="M85.2952 116.587H45.2715C35.9184 116.587 28.3365 124.169 28.3365 133.522V136.943H80.9319C84.0972 136.943 86.672 139.518 86.672 142.683V207.078C91.7208 208.304 96.9152 209.157 102.23 209.588V133.522C102.23 124.169 94.6483 116.587 85.2952 116.587Z" fill="#8AC9FE"/>
<path d="M45.2614 136.533V133.522C45.2614 130.604 45.9998 127.858 47.2996 125.461H41.3278C38.0215 125.461 35.0145 124.186 32.7672 122.103C30.0161 125.114 28.3371 129.121 28.3371 133.522V136.533H45.2614Z" fill="#60B7FF"/>
<path d="M79.4743 26.9589H58.5262C42.0701 26.9589 28.7292 40.2993 28.7292 56.7554V112.863C28.7292 119.82 34.3697 125.461 41.328 125.461H56.4749C63.4327 125.461 69.0736 119.821 69.0736 112.863V108.646L69.466 108.17V91.2051C69.466 90.1903 68.6247 89.3649 67.591 89.3649H66.7251C63.1892 89.3649 60.3224 86.4986 60.3224 82.9623V74.5805C60.3224 71.0446 63.1888 68.1778 66.7251 68.1778H67.5726C68.1905 68.1782 68.6812 68.6698 68.6812 69.2729V77.086C68.6812 77.5276 68.8555 77.9335 69.172 78.2287C69.4644 78.5014 69.8604 78.658 70.2594 78.658C70.6747 78.658 71.0675 78.4915 71.366 78.1906L92.4752 56.864C92.6675 56.6701 92.8799 56.6291 93.0242 56.6291C93.4142 56.6291 93.8176 56.9235 93.8176 57.4159V62.4955C98.7615 60.5037 102.253 55.6648 102.253 50.0075V49.7377C102.253 37.157 92.0546 26.9589 79.4743 26.9589Z" fill="#883F2E"/>
<path d="M41.5715 112.863V56.7554C41.5715 40.2993 54.9119 26.9589 71.3684 26.9589H58.5262C42.0697 26.9589 28.7292 40.2993 28.7292 56.7554V112.863C28.7292 119.82 34.3697 125.461 41.328 125.461H54.1702C47.212 125.461 41.5715 119.821 41.5715 112.863Z" fill="#6D3326"/>
<path d="M101.248 88.4141L94.5883 79.3205C94.3419 78.9843 94.2095 78.5784 94.2095 78.1614V57.4163C94.2095 56.3646 92.9356 55.841 92.1959 56.588L71.0871 77.9138C70.3474 78.6612 69.0735 78.1372 69.0735 77.0856V69.2725C69.0735 68.4516 68.4085 67.7862 67.5876 67.7854H67.5721H66.7246C62.9873 67.7854 59.9295 70.8432 59.9295 74.5804V82.9622C59.9295 86.6994 62.9873 89.7573 66.7246 89.7573H67.5721H67.5876C68.4048 89.7565 69.0735 90.4244 69.0735 91.2415V108.646H76.6529C85.5591 108.646 92.9118 102.014 94.0516 93.4195C94.1808 92.4457 95.0102 91.7188 95.9926 91.7188H99.5724C101.273 91.7188 102.253 89.7864 101.248 88.4141Z" fill="#FED2A4"/>
<path d="M85.2278 81.6516C83.5296 81.6516 82.1528 80.2752 82.1528 78.5765V74.8479C82.1528 73.1492 83.5296 71.7728 85.2278 71.7728C86.9261 71.7728 88.3029 73.1492 88.3029 74.8479V78.5765C88.3029 80.2748 86.9261 81.6516 85.2278 81.6516Z" fill="#EA9B58"/>
<path d="M80.9313 136.533H23.9402C20.5437 136.533 17.79 139.286 17.79 142.683V148.318C30.0485 177.524 55.7113 199.709 87.0814 207.185V142.683C87.0814 139.286 84.3278 136.533 80.9313 136.533Z" fill="#9C9C9C"/>
<path d="M34.1904 142.683C34.1904 139.286 36.944 136.533 40.3405 136.533H23.9402C20.5437 136.533 17.79 139.286 17.79 142.683V148.318C21.8663 158.031 27.4326 166.96 34.1904 174.836V142.683Z" fill="#838383"/>
</svg>
