<svg width="221" height="218" viewBox="0 0 221 218" fill="none" xmlns="http://www.w3.org/2000/svg">
<rect width="221" height="218" rx="109" fill="#BEC6ED"/>
<rect x="8" y="8" width="205" height="202" rx="101" fill="#E2E2E2"/>
<path d="M64.2465 28.6898V125.66H160.752V28.6898C160.752 24.9952 157.757 22 154.062 22H70.936C67.2414 22 64.2465 24.9952 64.2465 28.6898Z" fill="#E9EFFF"/>
<path d="M77.8667 22H70.9363C67.2417 22 64.2465 24.9952 64.2465 28.6898V125.66H71.1769V28.6898C71.1769 24.9952 74.1721 22 77.8667 22V22Z" fill="#D3DCFB"/>
<path d="M170.526 188.239H51.6898C47.9952 188.239 45 185.244 45 181.549V103.447C45 99.7526 47.9952 96.7573 51.6898 96.7573H81.7788C83.4821 96.7573 85.1572 97.1908 86.6465 98.0171L104.141 107.722C105.63 108.548 107.305 108.981 109.009 108.981H170.526C174.22 108.981 177.216 111.977 177.216 115.671V181.55C177.215 185.244 174.22 188.239 170.526 188.239Z" fill="#B3E59F"/>
<path d="M51.9304 181.549V103.447C51.9304 99.7526 54.9256 96.7573 58.6202 96.7573H51.6898C47.9952 96.7573 45 99.7526 45 103.447V181.549C45 185.244 47.9952 188.239 51.6898 188.239H58.6202C54.9256 188.239 51.9304 185.244 51.9304 181.549Z" fill="#95D6A4"/>
<path d="M139.967 81.4045H99.6946C98.3091 81.4045 97.186 80.2814 97.186 78.896C97.186 77.5105 98.3091 76.3875 99.6946 76.3875H139.967C141.352 76.3875 142.475 77.5105 142.475 78.896C142.475 80.2814 141.352 81.4045 139.967 81.4045Z" fill="#BAC5E2"/>
<path d="M139.967 91.0041H99.6946C98.3091 91.0041 97.186 89.881 97.186 88.4956C97.186 87.1101 98.3091 85.9871 99.6946 85.9871H139.967C141.352 85.9871 142.475 87.1101 142.475 88.4956C142.475 89.881 141.352 91.0041 139.967 91.0041Z" fill="#BAC5E2"/>
<path d="M89.0716 81.4045H85.8605C84.475 81.4045 83.3519 80.2814 83.3519 78.896C83.3519 77.5105 84.475 76.3875 85.8605 76.3875H89.0716C90.457 76.3875 91.5801 77.5105 91.5801 78.896C91.5801 80.2814 90.457 81.4045 89.0716 81.4045Z" fill="#BAC5E2"/>
<path d="M89.0716 91.0041H85.8605C84.475 91.0041 83.3519 89.881 83.3519 88.4956C83.3519 87.1101 84.475 85.9871 85.8605 85.9871H89.0716C90.457 85.9871 91.5801 87.1101 91.5801 88.4956C91.5801 89.881 90.457 91.0041 89.0716 91.0041Z" fill="#BAC5E2"/>
<path d="M124.206 65.3661V61.65C124.206 57.9038 121.169 54.8667 117.423 54.8667H107.576C103.829 54.8667 100.792 57.9038 100.792 61.65V65.3661C100.792 67.1671 102.252 68.6272 104.053 68.6272H120.945C122.746 68.6272 124.206 67.1671 124.206 65.3661Z" fill="#E5979D"/>
<path d="M112.5 46.0361C116.446 46.0361 119.644 42.8373 119.644 38.8914C119.644 34.9455 116.446 31.7467 112.5 31.7467C108.554 31.7467 105.355 34.9455 105.355 38.8914C105.355 42.8373 108.554 46.0361 112.5 46.0361Z" fill="#E5979D"/>
<path d="M111.108 171.012C124.143 171.012 134.71 160.445 134.71 147.41C134.71 134.374 124.143 123.807 111.108 123.807C98.0725 123.807 87.5054 134.374 87.5054 147.41C87.5054 160.445 98.0725 171.012 111.108 171.012Z" fill="#E9EFFF"/>
<path d="M93.1159 147.41C93.1159 135.324 102.201 125.367 113.913 123.979C112.993 123.87 112.058 123.807 111.108 123.807C98.0726 123.807 87.5054 134.374 87.5054 147.409C87.5054 160.444 98.0726 171.012 111.108 171.012C112.058 171.012 112.993 170.949 113.913 170.84C102.201 169.453 93.1159 159.495 93.1159 147.41Z" fill="#D3DCFB"/>
<path d="M120.54 143.124H116.715C115.985 143.124 115.393 142.532 115.393 141.802V137.977C115.393 136.115 113.883 134.606 112.021 134.606H110.194C108.332 134.606 106.822 136.115 106.822 137.977V141.802C106.822 142.532 106.23 143.124 105.5 143.124H101.675C99.8132 143.124 98.3037 144.634 98.3037 146.496V148.323C98.3037 150.185 99.8132 151.695 101.675 151.695H105.5C106.231 151.695 106.822 152.287 106.822 153.017V156.842C106.822 158.704 108.332 160.214 110.194 160.214H112.021C113.883 160.214 115.393 158.704 115.393 156.842V153.017C115.393 152.287 115.985 151.695 116.715 151.695H120.54C122.402 151.695 123.912 150.185 123.912 148.323V146.496C123.912 144.634 122.402 143.124 120.54 143.124Z" fill="#B3E59F"/>
</svg>
