<svg width="221" height="218" viewBox="0 0 221 218" fill="none" xmlns="http://www.w3.org/2000/svg">
<rect width="221" height="218" rx="109" fill="#BEC6ED"/>
<rect x="8" y="8" width="205" height="202" rx="101" fill="#E2E2E2"/>
<path d="M93.721 185H39.1V163.861C39.1 156.338 42.16 149.504 47.107 144.557C49.249 142.415 51.748 140.63 54.502 139.304C58.0975 137.545 62.152 136.55 66.4105 136.55C67.5325 136.55 68.629 136.627 69.7 136.754C76.891 137.621 83.317 141.293 87.6775 146.75C90.6865 150.473 92.7265 154.987 93.4405 160.01L95.2 172.25L95.2765 172.454L107.542 166.87L112.591 178.243L101.422 183.343C98.9995 184.439 96.373 185 93.721 185Z" fill="#FCD770"/>
<path d="M124.321 172.224C125.724 169.292 125.8 168.782 125.8 168.246C125.8 164.829 123.021 162.05 119.604 162.05H119.502C118.609 162.05 117.742 162.228 116.926 162.611L113.866 163.988C116.518 159.627 121.287 156.95 126.412 156.95H130.9C132.762 156.95 134.496 157.46 136 158.327C136.765 158.76 137.479 159.321 138.117 159.933C139.953 161.795 141.1 164.345 141.1 167.15C141.1 169.955 138.805 172.25 136 172.25H124.347L124.321 172.224Z" fill="#B4DD7F"/>
<path d="M113.866 163.988L113.841 164.014L110.5 165.518V146.75H136V158.327C134.495 157.46 132.761 156.95 130.9 156.95H126.412C121.287 156.95 116.518 159.627 113.866 163.988Z" fill="#AAB2BD"/>
<path d="M187 126.35V136.55C187 142.185 182.435 146.75 176.8 146.75H161.5H136H110.5H87.6774C83.3169 141.293 76.8909 137.621 69.6999 136.754V128.9H68.8839C71.0514 128.9 73.1169 128.033 74.6214 126.528L74.7999 126.35H187Z" fill="#CCD1D9"/>
<path d="M176.8 60.05H125.8H84.8724H84.8469C84.0054 68.873 78.6249 76.37 71.0769 80.2205C73.3464 82.1076 74.7999 84.9381 74.7999 88.1001H82.4499C85.2549 88.1001 87.5499 90.3696 87.5499 93.2001C87.5499 94.6026 86.9889 95.8776 86.0454 96.7956C85.1274 97.7391 83.8524 98.3001 82.4499 98.3001H74.7999L76.9674 119.975C76.9929 120.23 76.9929 120.511 76.9929 120.766C76.9929 122.831 76.2279 124.82 74.7999 126.35H187V70.25C187 64.6145 182.435 60.05 176.8 60.05Z" fill="#69D6F4"/>
<path d="M151.3 85.55C165.383 85.55 176.8 74.1333 176.8 60.05C176.8 45.9668 165.383 34.55 151.3 34.55C137.217 34.55 125.8 45.9668 125.8 60.05C125.8 74.1333 137.217 85.55 151.3 85.55Z" fill="#E6E9ED"/>
<path d="M97.7499 100.85H118.15V116.15H97.7499V100.85Z" fill="#FCD770"/>
<path d="M84.847 60.05C84.0055 68.873 78.625 76.37 71.077 80.2205C69.3175 78.767 67.048 77.9 64.6 77.9H54.4C51.748 77.9 49.249 78.563 47.0815 79.7615C39.2785 75.401 34 67.0625 34 57.5C34 43.424 45.424 32 59.5 32C73.576 32 85 43.424 85 57.5C85 58.367 84.949 59.2085 84.847 60.05Z" fill="#E6E9ED"/>
<path d="M54.4 116.15V128.9C45.271 125.866 39.1 117.298 39.1 107.659V98.3H54.4L52.003 100.697C50.269 102.431 49.3 104.777 49.3 107.225C49.3 109.673 50.269 112.019 52.003 113.753L54.4 116.15Z" fill="#656D78"/>
<path d="M74.8 88.0999H67.762C65.824 88.0999 64.0645 89.1964 63.1975 90.9049L59.5 98.2999H54.4H39.1V93.1999C39.1 87.4114 42.3385 82.3624 47.0815 79.7614C49.249 78.5629 51.748 77.8999 54.4 77.8999H64.6C67.048 77.8999 69.3175 78.7669 71.077 80.2204C73.3465 82.1074 74.8 84.9379 74.8 88.0999Z" fill="#FF826E"/>
<path d="M82.45 88.0999C85.255 88.0999 87.55 90.3694 87.55 93.1999C87.55 94.6024 86.989 95.8774 86.0455 96.7954C85.1275 97.7389 83.8525 98.2999 82.45 98.2999H74.8H59.5L63.1975 90.9049C64.0645 89.1964 65.824 88.0999 67.762 88.0999H74.8H82.45Z" fill="#FC6E51"/>
<path d="M119.603 162.05C123.02 162.05 125.8 164.83 125.8 168.247C125.8 168.782 125.723 169.292 124.321 172.225C123.76 172.939 123.02 173.5 122.153 173.908L112.591 178.243L107.542 166.87L110.5 165.518L113.84 164.014L113.866 163.988L116.926 162.611C117.742 162.229 118.609 162.05 119.501 162.05H119.603Z" fill="#F0D0B4"/>
<path d="M54.3999 128.9V116.15L52.0029 113.753C50.2689 112.019 49.2999 109.673 49.2999 107.225C49.2999 104.777 50.2689 102.431 52.0029 100.697L54.3999 98.3H59.4999H74.7999L76.9674 119.975C76.9929 120.23 76.9929 120.511 76.9929 120.766C76.9929 122.831 76.2279 124.82 74.7999 126.35C74.7234 126.427 74.6724 126.478 74.6214 126.529C73.1169 128.033 71.0514 128.9 68.8839 128.9H69.6999V136.754C68.6289 136.627 67.5324 136.55 66.4104 136.55C62.1519 136.55 58.0974 137.545 54.5019 139.304L54.3999 139.1V128.9Z" fill="#F0D0B4"/>
<path d="M62.05 52.8132L65.3115 62.6001H77.35V57.5001H68.9886L62.05 36.687L53.9257 61.0548L50.8759 54.9501H41.65V60.0501H47.7241L54.8743 74.3454L62.05 52.8132Z" fill="#404B80"/>
<path d="M174.25 134H179.35V139.1H174.25V134Z" fill="#404B80"/>
<path d="M164.05 134H169.15V139.1H164.05V134Z" fill="#404B80"/>
<path d="M153.85 134H158.95V139.1H153.85V134Z" fill="#404B80"/>
<path d="M136 47.3003H141.1V52.4003H136V47.3003Z" fill="#404B80"/>
<path d="M146.2 47.3003H166.6V52.4003H146.2V47.3003Z" fill="#404B80"/>
<path d="M136 57.5002H141.1V62.6002H136V57.5002Z" fill="#404B80"/>
<path d="M146.2 57.5002H166.6V62.6002H146.2V57.5002Z" fill="#404B80"/>
<path d="M136 67.7002H141.1V72.8002H136V67.7002Z" fill="#404B80"/>
<path d="M146.2 67.7002H166.6V72.8002H146.2V67.7002Z" fill="#404B80"/>
<path d="M120.7 98.3H95.2V118.7H120.7V98.3ZM115.6 113.6H100.3V103.4H115.6V113.6Z" fill="#F9F7F8"/>
<path d="M95.2 88.1001H120.7V93.2001H95.2V88.1001Z" fill="#F9F7F8"/>
<path d="M95.2 77.9001H120.7V83.0001H95.2V77.9001Z" fill="#F9F7F8"/>
<path d="M95.2 67.7002H120.7V72.8002H95.2V67.7002Z" fill="#F9F7F8"/>
<path d="M125.8 113.6H130.9V118.7H125.8V113.6Z" fill="#F9F7F8"/>
<path d="M136 113.6H179.35V118.7H136V113.6Z" fill="#F9F7F8"/>
<path d="M125.8 103.4H179.35V108.5H125.8V103.4Z" fill="#F9F7F8"/>
<path d="M125.8 93.2H179.35V98.3H125.8V93.2Z" fill="#F9F7F8"/>
<path d="M68.0751 108.784C66.3768 108.784 65 107.408 65 105.709V102.075C65 100.376 66.3768 99 68.0751 99C69.7733 99 71.1501 100.376 71.1501 102.075V105.709C71.1501 107.408 69.7733 108.784 68.0751 108.784Z" fill="#EA9B58"/>
<path d="M78.4604 124.203C74.9983 124.203 71.5362 122.885 68.9007 120.249C67.6998 119.049 67.6998 117.101 68.9007 115.901C70.1016 114.7 72.0487 114.7 73.2492 115.9C76.1226 118.774 80.7983 118.774 83.6712 115.9C84.8721 114.7 86.8193 114.7 88.0198 115.9C89.2207 117.102 89.2207 119.049 88.0198 120.249C85.3846 122.885 81.9225 124.203 78.4604 124.203Z" fill="#EA9B58"/>
<path d="M76.5 124.5C76.9 123.7 76.6667 118.5 76.5 116L80.5 114L89 113.5L91.5 116L88 124L76.5 124.5Z" fill="#69D6F4"/>
</svg>
