<svg width="221" height="218" viewBox="0 0 221 218" fill="none" xmlns="http://www.w3.org/2000/svg">
<rect width="221" height="218" rx="109" fill="#BEC6ED"/>
<rect x="8" y="8" width="205" height="202" rx="101" fill="#E2E2E2"/>
<path d="M167.453 88.3599L128.655 126.65L110.537 108.752L89.8576 88.3599C85.0318 83.6283 82.3126 77.154 82.3126 70.3955C82.3126 63.637 85.0318 57.1627 89.8576 52.4311C99.9736 42.5225 116.156 42.5225 126.272 52.4311L128.655 54.7925L131.039 52.4311C137.015 46.5631 145.456 43.9412 153.704 45.3909C158.905 46.2589 163.709 48.7186 167.453 52.4311C172.279 57.1627 174.998 63.637 174.998 70.3955C174.998 77.154 172.279 83.6283 167.453 88.3599Z" fill="#DF4D60"/>
<path d="M154.079 51.9455C154.083 78.5495 136.228 101.843 110.537 108.752L89.8576 88.3599C85.0318 83.6283 82.3126 77.154 82.3126 70.3955C82.3126 63.637 85.0318 57.1627 89.8576 52.4311C99.9736 42.5225 116.156 42.5225 126.272 52.4311L128.655 54.7925L131.039 52.4311C137.015 46.5631 145.456 43.9412 153.704 45.3909C153.952 47.567 154.077 49.7554 154.079 51.9455V51.9455Z" fill="#FF5364"/>
<path d="M160.466 71.477L163.32 68.6234C164.156 67.7575 164.144 66.381 163.293 65.5297C162.442 64.6784 161.065 64.6664 160.199 65.5028L157.346 68.3564L154.492 65.5028C153.626 64.6664 152.25 64.6784 151.398 65.5297C150.547 66.381 150.535 67.7575 151.371 68.6234L154.225 71.477L148.518 77.1841L145.664 74.3306C144.798 73.4942 143.422 73.5061 142.571 74.3574C141.719 75.2087 141.707 76.5852 142.544 77.4512L145.397 80.3047L142.544 83.1583C141.97 83.7124 141.74 84.5329 141.942 85.3046C142.144 86.0762 142.746 86.6788 143.518 86.8807C144.29 87.0827 145.11 86.8526 145.664 86.2789L148.518 83.4253L151.371 86.2789C152.237 87.1153 153.614 87.1033 154.465 86.252C155.316 85.4007 155.328 84.0242 154.492 83.1583L151.638 80.3047L157.346 74.5976L160.199 77.4512C161.065 78.2875 162.442 78.2756 163.293 77.4243C164.144 76.573 164.156 75.1965 163.32 74.3306L160.466 71.477Z" fill="#802D40"/>
<path d="M172.088 143.357L130.73 168.538C128.309 170.011 125.53 170.79 122.697 170.789H63.5509V122.237H73.0407C77.6124 122.243 82.0469 123.799 85.6202 126.65C89.1936 129.502 93.6281 131.058 98.1998 131.064H109.742C113.622 131.059 117.219 133.096 119.21 136.427L119.408 136.758C121.261 139.909 120.763 143.912 118.195 146.513H123.381C124.334 146.513 125.281 146.357 126.184 146.049L167.034 132.433C169.507 131.621 172.222 132.473 173.787 134.551V134.573C174.813 135.935 175.214 137.669 174.89 139.343C174.566 141.017 173.548 142.476 172.088 143.357V143.357Z" fill="#FDD7AD"/>
<path d="M120.424 142.099C120.176 143.772 119.394 145.32 118.195 146.513H103.761C100.281 146.508 96.8782 147.537 93.9845 149.47L92.3514 150.551C91.996 150.8 91.5715 150.932 91.1376 150.927C90.1697 150.919 89.3197 150.282 89.0411 149.355C88.7625 148.428 89.1204 147.428 89.9238 146.888L91.5348 145.807C95.1523 143.385 99.4082 142.095 103.761 142.099L120.424 142.099Z" fill="#F9C795"/>
<path d="M62.4474 117.823H51.4128C48.9751 117.823 46.9989 119.799 46.9989 122.236V168.582C46.9989 171.02 48.9751 172.996 51.4128 172.996H62.4474C64.8852 172.996 66.8613 171.02 66.8613 168.582V122.236C66.8613 119.799 64.8852 117.823 62.4474 117.823Z" fill="#FF5364"/>
</svg>
